HIERARCHY
ROOT Hips
{
	OFFSET 0.000000 89.005402 0.000000
	CHANNELS 6 Xposition Yposition Zposition Xrotation Yrotation Zrotation
	JOINT Spine
	{
		OFFSET 0.116900 10.681000 0.373400
		CHANNELS 3 Xrotation Yrotation Zrotation
		JOINT Spine1
		{
			OFFSET 0.000000 13.840401 0.053500
			CHANNELS 3 Xrotation Yrotation Zrotation
			JOINT Spine2
			{
				OFFSET 0.000000 14.712700 -0.366200
				CHANNELS 3 Xrotation Yrotation Zrotation
				JOINT Neck
				{
					OFFSET 0.000000 35.415497 -3.314200
					CHANNELS 3 Xrotation Yrotation Zrotation
					JOINT Head
					{
						OFFSET 0.000000 16.899200 1.218300
						CHANNELS 3 Xrotation Yrotation Zrotation
						JOINT HeadTop_End
						{
							OFFSET 0.000000 22.206207 2.192500
							CHANNELS 3 Xrotation Yrotation Zrotation
							End Site
							{
								OFFSET 0.000000 22.314178 0.000000
							}
						}
					}
				}
				JOINT LeftShoulder
				{
					OFFSET 12.896400 26.716293 -4.548400
					CHANNELS 3 Xrotation Yrotation Zrotation
					JOINT LeftArm
					{
						OFFSET 19.027000 -4.857010 -1.718400
						CHANNELS 3 Xrotation Yrotation Zrotation
						JOINT LeftForeArm
						{
							OFFSET 24.179897 0.000000 0.000000
							CHANNELS 3 Xrotation Yrotation Zrotation
							JOINT LeftHand
							{
								OFFSET 27.156403 0.000000 0.000000
								CHANNELS 3 Xrotation Yrotation Zrotation
								JOINT LeftHandIndex1
								{
									OFFSET 16.441200 0.000000 0.000000
									CHANNELS 3 Xrotation Yrotation Zrotation
									JOINT LeftHandIndex2
									{
										OFFSET 4.821899 0.000000 0.000000
										CHANNELS 3 Xrotation Yrotation Zrotation
										JOINT LeftHandIndex3
										{
											OFFSET 6.386497 0.000000 0.000000
											CHANNELS 3 Xrotation Yrotation Zrotation
											JOINT LeftHandIndex4
											{
												OFFSET 5.188988 0.000000 0.000000
												CHANNELS 3 Xrotation Yrotation Zrotation
												End Site
												{
													OFFSET -0.178703 5.185913 0.000177
												}
											}
										}
									}
								}
								JOINT LeftHandThumb1
								{
									OFFSET 6.534897 -5.032593 5.900300
									CHANNELS 3 Xrotation Yrotation Zrotation
									JOINT LeftHandThumb2
									{
										OFFSET 3.818176 -2.204422 2.204423
										CHANNELS 3 Xrotation Yrotation Zrotation
										JOINT LeftHandThumb3
										{
											OFFSET 3.252098 -1.877594 1.877601
											CHANNELS 3 Xrotation Yrotation Zrotation
											JOINT LeftHandThumb4
											{
												OFFSET 5.251778 -3.032120 3.032117
												CHANNELS 3 Xrotation Yrotation Zrotation
												End Site
												{
													OFFSET 0.000023 6.780014 0.000000
												}
											}
										}
									}
								}
							}
						}
					}
				}
				JOINT RightShoulder
				{
					OFFSET -12.896300 26.716293 -4.548400
					CHANNELS 3 Xrotation Yrotation Zrotation
					JOINT RightArm
					{
						OFFSET -19.027000 -4.857010 -1.718400
						CHANNELS 3 Xrotation Yrotation Zrotation
						JOINT RightForeArm
						{
							OFFSET -24.179897 0.000000 0.000000
							CHANNELS 3 Xrotation Yrotation Zrotation
							JOINT RightHand
							{
								OFFSET -27.156403 0.000000 0.000000
								CHANNELS 3 Xrotation Yrotation Zrotation
								JOINT RightHandThumb1
								{
									OFFSET -6.591202 -4.852203 5.988100
									CHANNELS 3 Xrotation Yrotation Zrotation
									JOINT RightHandThumb2
									{
										OFFSET -3.818176 -2.204422 2.204423
										CHANNELS 3 Xrotation Yrotation Zrotation
										JOINT RightHandThumb3
										{
											OFFSET -3.252098 -1.877594 1.877601
											CHANNELS 3 Xrotation Yrotation Zrotation
											JOINT RightHandThumb4
											{
												OFFSET -5.251778 -3.032120 3.032117
												CHANNELS 3 Xrotation Yrotation Zrotation
												End Site
												{
													OFFSET -0.000023 6.780014 0.000000
												}
											}
										}
									}
								}
								JOINT RightHandIndex1
								{
									OFFSET -16.029404 0.000000 0.000000
									CHANNELS 3 Xrotation Yrotation Zrotation
									JOINT RightHandIndex2
									{
										OFFSET -5.213303 0.000000 0.000000
										CHANNELS 3 Xrotation Yrotation Zrotation
										JOINT RightHandIndex3
										{
											OFFSET -6.386528 0.000000 0.000000
											CHANNELS 3 Xrotation Yrotation Zrotation
											JOINT RightHandIndex4
											{
												OFFSET -5.189026 0.000000 0.000000
												CHANNELS 3 Xrotation Yrotation Zrotation
												End Site
												{
													OFFSET 0.236702 5.183624 0.001972
												}
											}
										}
									}
								}
							}
						}
					}
				}
			}
		}
	}
	JOINT LeftUpLeg
	{
		OFFSET 14.073000 -7.904099 -1.463000
		CHANNELS 3 Xrotation Yrotation Zrotation
		JOINT LeftLeg
		{
			OFFSET -0.109806 -34.073280 4.093200
			CHANNELS 3 Xrotation Yrotation Zrotation
			JOINT LeftFoot
			{
				OFFSET 0.109806 -29.899420 -6.319000
				CHANNELS 3 Xrotation Yrotation Zrotation
				JOINT LeftToeBase
				{
					OFFSET 1.551100 -14.988700 20.535801
					CHANNELS 3 Xrotation Yrotation Zrotation
					JOINT LeftToe_End
					{
						OFFSET 0.221200 0.570800 13.248301
						CHANNELS 3 Xrotation Yrotation Zrotation
						End Site
						{
							OFFSET 0.000000 13.262435 0.000000
						}
					}
				}
			}
		}
	}
	JOINT RightUpLeg
	{
		OFFSET -13.839300 -7.904099 -1.463000
		CHANNELS 3 Xrotation Yrotation Zrotation
		JOINT RightLeg
		{
			OFFSET 0.109694 -34.073219 4.093300
			CHANNELS 3 Xrotation Yrotation Zrotation
			JOINT RightFoot
			{
				OFFSET -0.109694 -29.899384 -6.319200
				CHANNELS 3 Xrotation Yrotation Zrotation
				JOINT RightToeBase
				{
					OFFSET -1.551100 -14.988700 20.535801
					CHANNELS 3 Xrotation Yrotation Zrotation
					JOINT RightToe_End
					{
						OFFSET -0.221200 0.570900 13.248299
						CHANNELS 3 Xrotation Yrotation Zrotation
						End Site
						{
							OFFSET 0.000000 13.262440 0.000000
						}
					}
				}
			}
		}
	}
}
MOTION
Frames: 4
Frame Time: 0.033333
0.546371 79.824348 105.375023 -5.332563 -6.364156 2.828078 -0.191183 1.712562 -0.421719 -0.553143 1.186188 0.433812 -0.544286 1.197326 0.414227 -2.559152 0.233227 -1.137468 -9.779969 1.234346 -5.739761 0.000002 -0.000000 -0.000000 2.135576 -12.432971 -10.703606 8.446874 -17.432584 -63.348106 0.000005 -6.977413 0.000022 -18.547246 4.962444 12.885191 0.754847 3.139478 -27.032774 0.053440 0.857993 -7.128503 0.013375 0.429818 -3.564074 -0.000000 -0.000000 0.000000 -7.867505 31.599771 22.451899 8.213141 11.702294 -0.982444 1.536451 3.472091 1.990676 0.000002 0.000001 -0.000000 0.878815 -0.566456 11.662004 26.585791 30.892280 48.806626 0.000002 25.025204 -0.000004 -32.599854 1.430765 -13.897704 -0.808094 -27.255829 -20.525881 -5.621015 -12.082474 -5.833173 -6.218129 -1.823486 -4.198794 -0.000000 0.000001 -0.000001 0.147273 -1.426356 11.789607 0.283896 -1.970282 16.396699 0.071310 -0.995316 8.195922 -0.000000 -0.000002 0.000001 -31.202107 -2.219072 -4.198108 21.063076 5.043795 -2.419915 15.248143 0.290134 2.317948 -0.000056 -0.000000 -0.000005 -0.000000 -0.000000 -0.000000 -3.580103 -12.473670 -7.662245 64.946466 1.484595 -7.447710 -1.425642 4.955778 -3.938173 -57.546584 -0.636534 3.149727 0.000000 0.000000 0.000000 
0.501845 79.343353 107.781616 -5.738197 -5.328876 3.530669 0.163463 0.865219 -0.954581 -0.195264 0.644799 0.215464 -0.190292 0.646299 0.205145 -2.814981 0.275099 -1.312437 -11.224373 1.328586 -5.885487 -0.000001 -0.000000 0.000001 2.198340 -12.630225 -10.865573 9.255329 -20.810992 -61.136989 0.000002 -9.529535 0.000023 -19.350163 5.310671 13.418638 0.754847 3.139479 -27.032767 0.053439 0.857994 -7.128503 0.013371 0.429818 -3.564073 -0.000001 -0.000000 -0.000001 -7.867508 31.599775 22.451904 8.213145 11.702296 -0.982449 1.536444 3.472088 1.990671 -0.000000 0.000000 0.000002 0.876100 -0.278311 11.370274 26.612615 31.515756 51.341323 -0.000003 23.046701 -0.000009 -35.324748 0.593042 -14.425298 -0.808093 -27.255832 -20.525885 -5.621015 -12.082475 -5.833174 -6.218130 -1.823484 -4.198792 -0.000001 0.000000 -0.000003 0.147273 -1.426358 11.789607 0.283896 -1.970287 16.396699 0.071309 -0.995314 8.195918 -0.000001 -0.000002 -0.000002 -31.562150 -1.227001 -4.825829 26.650111 4.040232 -3.829557 10.478934 -0.005799 3.557992 -0.000071 0.000002 0.000005 -0.000000 0.000000 0.000000 -8.385795 -12.531344 -8.239220 66.905781 1.969782 -7.423668 16.295341 -0.513309 -1.777914 -72.614951 -4.044213 5.057915 -0.000000 0.000001 0.000000 
0.663195 79.535568 110.217766 -5.055781 -5.551657 3.597676 0.247658 0.591174 -1.078706 -0.069882 0.562058 0.356599 -0.065793 0.563886 0.348602 -3.120202 0.304237 -1.405105 -12.732174 1.646936 -6.660863 0.000001 -0.000000 0.000000 2.255250 -12.630055 -11.100096 9.508993 -22.126545 -59.761901 -0.000002 -14.440336 0.000008 -17.941479 5.880255 15.008709 0.754848 3.139476 -27.032774 0.053441 0.857993 -7.128504 0.013368 0.429819 -3.564074 -0.000001 -0.000000 -0.000001 -7.867509 31.599771 22.451906 8.213144 11.702295 -0.982448 1.536450 3.472091 1.990678 0.000001 0.000002 0.000004 0.883133 -0.064247 11.288308 27.438989 32.124432 52.229927 -0.000010 22.178207 0.000019 -34.962485 -0.360726 -13.130346 -0.808092 -27.255831 -20.525886 -5.621014 -12.082475 -5.833177 -6.218128 -1.823483 -4.198795 -0.000000 0.000001 0.000005 0.147273 -1.426357 11.789605 0.283897 -1.970286 16.396701 0.071310 -0.995313 8.195920 0.000001 -0.000002 -0.000001 -31.120999 1.809702 -5.316755 29.509948 2.539048 -2.577904 6.665530 -0.204093 4.142066 -0.000115 -0.000001 0.000000 0.000000 0.000000 -0.000000 -13.743921 -10.446773 -8.100398 68.580188 -0.999241 -5.901138 21.265994 -0.572588 -1.760104 -73.135070 -9.048609 5.967446 -0.000000 -0.000000 -0.000000 
0.914728 80.140045 112.715897 -3.363410 -6.166851 3.539440 0.135787 0.503686 -1.015008 -0.162518 0.597566 0.540574 -0.157656 0.603220 0.532434 -3.582053 0.347949 -1.618803 -14.992789 2.005907 -7.636851 0.000003 0.000000 0.000000 2.282689 -12.508372 -11.277164 9.366981 -22.679548 -58.902397 0.000004 -19.988687 0.000009 -15.995360 6.378595 17.081115 0.754845 3.139479 -27.032767 0.053442 0.857993 -7.128503 0.013370 0.429818 -3.564075 -0.000000 -0.000001 -0.000000 -7.867510 31.599775 22.451906 8.213145 11.702295 -0.982446 1.536451 3.472092 1.990676 0.000002 -0.000001 -0.000002 0.890679 0.076126 11.277155 27.537272 31.609388 52.777387 0.000004 22.404349 -0.000011 -30.098079 -0.529063 -10.772181 -0.808093 -27.255831 -20.525880 -5.621015 -12.082475 -5.833177 -6.218131 -1.823486 -4.198789 0.000000 0.000002 0.000001 0.147272 -1.426357 11.789606 0.283897 -1.970285 16.396702 0.071309 -0.995311 8.195919 0.000000 -0.000000 -0.000001 -30.700109 3.269803 -5.360612 30.404591 2.579739 -2.056377 3.716812 -0.284105 4.595430 -0.000087 0.000000 -0.000001 0.000000 -0.000000 -0.000000 -20.669484 -8.588457 -6.707364 71.020457 -1.000447 -3.947723 19.635511 -0.922892 -5.112093 -68.581240 -9.085718 4.920648 -0.000000 0.000000 0.000000 
